<svg width="194" height="121" viewBox="0 0 194 121" fill="none" xmlns="http://www.w3.org/2000/svg"><path d="M54.1232 7.17037 53.9525 47.7278 53.8537 60.5359H147.09L147.207 45.012l38.71 30.7587L194 82.4593 146.623 120.704 138.315 113.83 149.093 105.18H35.0285c-14.4691.0-26.15403-11.7501-26.04625-26.1894L9.18882 51.5998 9.38641 7.17037 31.6874 16.1064 44.9074.0 54.1232 7.17037z" fill="#b61612"/><path d="M44.971.0V40.5574L44.9074 53.7778H138.342V37.6444L185.917 75.737 138.315 113.83V97.6963L26.047 98.01C11.5779 98.01-.107038 86.2596 739628e-9 71.8202L.207314 44.4294.166298e-9.0 22.4537 8.96296 44.971.0z" fill="#f2312c"/><path fill-rule="evenodd" clip-rule="evenodd" d="M82.7516 62.6689C77.5618 62.6689 75.3242 67.2899 75.3242 74.1747c0 4.3381.88839999999999 7.7774 2.8438 9.7283L80.8943 86.6236 80.9149 86.6443C82.0629 87.7896 83.5787 88.4219 85.4985 88.4219 90.0396 88.4219 92.3204 84.884 92.8196 79.3872 92.8909 78.6019 92.9259 77.7767 92.9259 76.9161 92.9259 76.6451 92.9224 76.3772 92.9154 76.1134 92.9085 75.8494 92.898 75.5891 92.8839 75.3326 92.6872 71.7413 91.7932 68.8946 90.0821 67.1875L87.3366 64.4477 87.3682 64.4794 87.3353 64.4466C86.1873 63.3013 84.6714 62.6689 82.7516 62.6689z" fill="#161613"/><path fill-rule="evenodd" clip-rule="evenodd" d="M59.2599 62.9789H51.7703V85.3702L54.5172 88.1114 59.0855 88.1118V86.0646l2.051 2.0468L64.2753 88.1118 64.5426 86.3003 66.3575 88.1114 71.8892 88.1118V65.7204L69.1424 62.9789H62.0568L61.686 65.4001 59.2599 62.9789z" fill="#161613"/><path fill-rule="evenodd" clip-rule="evenodd" d="M100.064 88.1118H105.845V86.0646l2.051 2.0468L113.863 88.1118l-2.3-10.5444C112.728 76.5184 113.633 75.0029 113.78 72.9025 113.793 72.7053 113.8 72.5029 113.8 72.2952 113.8 71.7762 113.762 71.2876 113.687 70.8298 113.462 69.4562 112.91 68.3583 112.087 67.5377l-2.747-2.7413C108.127 63.5862 106.327 62.9789 104.123 62.9789H97.3176V85.3702L100.064 88.1118z" fill="#161613"/><path fill-rule="evenodd" clip-rule="evenodd" d="M120.623 88.1118h11.405V83.894L129.281 81.1524h-2.878V78.8699H130.194V74.6522L127.447 71.9109h-1.044V69.9382h5.438V65.7204L129.094 62.9789H117.876V85.3702L120.623 88.1118z" fill="#161613"/><path d="M117.876 85.3703V62.979h11.218v4.2178H123.656V71.9107h3.791v4.2178h-3.791v5.0241h5.625V85.3703H117.876z" fill="#fff"/><path d="M103.098 76.2215V85.3703H97.3176V62.979H104.123c4.196.0 6.931 2.2019 6.931 6.57470000000001C111.054 71.9727 110.09 73.6785 108.816 74.8259l2.3 10.5444h-5.967L103.595 76.2215h-.497zM103.44 67.0417H103.098V72.531H103.44C104.714 72.531 105.46 71.5696 105.46 69.8018 105.46 68.0031 104.714 67.0417 103.44 67.0417z" fill="#fff"/><path d="M90.179 74.1747C90.179 81.0596 87.9415 85.6805 82.7516 85.6805 77.5618 85.6805 75.3242 81.0596 75.3242 74.1747 75.3242 67.2899 77.5618 62.6689 82.7516 62.6689 87.9415 62.6689 90.179 67.2899 90.179 74.1747zM81.4153 74.826C81.4153 80.1912 81.8193 81.2767 82.7516 81.2767S84.0879 80.1912 84.0879 74.826V73.5235C84.0879 68.1582 83.6839 67.0728 82.7516 67.0728S81.4153 68.1582 81.4153 73.5235V74.826z" fill="#fff"/><path d="M61.5285 85.3703H58.3897L56.3386 71.2595V85.3703H51.7703V62.979h7.4896L60.6273 72.3139 62.0568 62.979H69.1424V85.3703H63.6107V71.2595L61.5285 85.3703z" fill="#fff"/></svg>